<?xml version="1.0" encoding="UTF-8"?>
<svg id="katman_1" data-name="katman 1" xmlns="http://www.w3.org/2000/svg" viewBox="0 0 192.17 56">
  <defs>
    <style>
      .cls-1 {
        fill: #ec662c;
      }

      .cls-2 {
        fill: #043954;
      }
    </style>
  </defs>
  <g>
    <polygon class="cls-2" points="12.61 21.13 23.08 15.82 23.08 0 12.34 6.99 12.61 21.13"/>
    <polygon class="cls-2" points="12.61 34.88 23.08 40.18 23.08 56 12.34 49.01 12.61 34.88"/>
    <polygon class="cls-2" points="54.06 35 43.59 40.23 43.59 56 54.33 49.01 54.06 35"/>
    <polygon class="cls-2" points="54.2 21.18 43.72 15.94 43.72 .12 54.46 7.1 54.2 21.18"/>
    <polygon class="cls-1" points="43.7 26.31 43.7 16.45 66.73 27.97 33.99 44.33 33.99 34.33 47.21 27.97 43.7 26.31"/>
    <polygon class="cls-1" points="23.02 29.63 23.02 39.49 0 27.97 32.74 11.61 32.74 21.61 19.52 27.97 23.02 29.63"/>
  </g>
  <g>
    <g>
      <g>
        <path class="cls-1" d="m161.9,35.56c.17.17.25.37.25.61v11.23c0,.24-.09.45-.26.61-.18.17-.38.25-.62.25s-.46-.08-.63-.25c-.17-.17-.25-.37-.25-.61v-8.24l-4.09,8.18c-.19.29-.45.43-.76.43-.37,0-.64-.17-.81-.51l-4.04-7.94v8.09c0,.24-.08.45-.25.61-.17.17-.38.25-.63.25s-.46-.08-.63-.25c-.17-.17-.25-.37-.25-.61v-11.23c0-.24.08-.45.25-.61.17-.17.38-.25.63-.25.34,0,.6.16.78.46l5.02,9.87,4.89-9.87c.18-.31.44-.46.78-.46.25,0,.46.08.63.25Z"/>
        <path class="cls-1" d="m161.27,48.34c-.27,0-.5-.09-.68-.27-.18-.18-.28-.41-.28-.67v-7.91l-3.94,7.88c-.21.32-.49.47-.83.47-.4,0-.7-.19-.88-.56l-3.89-7.65v7.76c0,.26-.09.49-.28.67-.18.18-.41.27-.68.27s-.5-.09-.68-.27c-.18-.18-.28-.41-.28-.67v-11.23c0-.26.09-.49.28-.67.18-.18.41-.27.68-.27.37,0,.65.17.85.5l4.95,9.73,4.82-9.73c.2-.34.48-.51.85-.51.27,0,.5.09.68.27.18.18.28.41.28.67v11.23c0,.26-.1.49-.29.67-.19.18-.42.27-.67.27Zm-.8-9.52v8.58c0,.22.08.41.23.56.16.15.34.23.57.23s.4-.07.56-.23c.16-.15.24-.33.24-.56v-11.23c0-.22-.08-.41-.23-.56-.16-.15-.34-.23-.57-.23-.31,0-.54.14-.71.43l-4.95,10.01-5.09-10.01c-.16-.28-.4-.42-.71-.42-.23,0-.42.07-.57.23-.15.15-.23.33-.23.56v11.23c0,.22.08.41.23.56.16.15.34.23.57.23s.42-.07.57-.23c.15-.15.23-.33.23-.56v-8.42l4.19,8.24c.16.32.4.47.74.47.29,0,.52-.13.7-.4l4.24-8.47Z"/>
      </g>
      <path class="cls-1" d="m97.37,35.16l-2.58,4.91c-.26.52-.76.86-1.27.86s-.99-.33-1.26-.87l-2.58-4.91h-2.31l2.87,5.47c.45.88,1.1,1.5,1.98,1.89l.25.11v5.45h2.08v-5.45l.25-.11c.89-.4,1.53-1.02,1.98-1.89l2.87-5.47h-2.29Z"/>
      <path class="cls-1" d="m105.79,34.88c-1.53,0-2.36.65-2.89,2.25l-3.61,10.96h2.22l3.36-10.39c.19-.64.61-.77.92-.77.27,0,.75.1.95.78l3.36,10.38h2.22l-3.63-10.96c-.45-1.54-1.36-2.25-2.89-2.25Z"/>
      <path class="cls-1" d="m117.04,45.31c0-.33.2-.58.45-.84l5.77-6.51c.36-.41.55-.92.55-1.21v-.48c0-.71-.25-1.12-1.52-1.12h-8.09v2.02h4.78c.53,0,1.26,0,1.26.73,0,.26-.14.53-.45.86l-5.77,6.53c-.36.41-.55.93-.55,1.21v.48c0,.68.24,1.1,1.42,1.1h9.3v-2.04h-5.89c-.47,0-1.26,0-1.26-.73Z"/>
      <rect class="cls-1" x="127.05" y="35.16" width="2.08" height="12.93"/>
      <path class="cls-1" d="m134.42,44.02v-8.87h-2.08v9.02c0,2.88,1.02,3.9,3.9,3.9h4.26v-2.04h-4.04c-1.45,0-2.04-.58-2.04-2.02Z"/>
      <rect class="cls-1" x="142.94" y="35.16" width="2.08" height="12.93"/>
    </g>
    <g>
      <path class="cls-2" d="m74.51,12.69v7.49h9.38v-7.49h4.25v19.91h-4.25v-8.23h-9.38v8.23h-4.25V12.69h4.25Z"/>
      <path class="cls-2" d="m108.15,12.69v4.16h-9.52c-1.75,0-2.29.57-2.29,2.32v1.26h11.82v4.19h-11.82v1.49c0,1.75.54,2.29,2.29,2.29h9.52v4.19h-9.84c-4.5,0-6.22-1.75-6.22-6.25v-7.43c0-4.5,1.72-6.22,6.22-6.22h9.84Z"/>
      <path class="cls-2" d="m127.52,12.69v4.16h-6.02v15.75h-4.25v-15.75h-6.05v-4.16h16.32Z"/>
      <path class="cls-2" d="m147.68,32.59h-4.5l-4.99-15.43c-.14-.49-.4-.69-.77-.69s-.6.2-.75.69l-4.99,15.43h-4.5l5.48-16.64c.83-2.52,2.24-3.67,4.76-3.67s4.04,1.2,4.76,3.67l5.51,16.64Z"/>
      <path class="cls-2" d="m160.62,12.69c3.99,0,6.02,1.49,6.02,4.25v2.18c0,1.84-1.46,3.13-3.9,3.16,2.67.14,4.1,1.49,4.1,3.7v2.35c0,2.75-2.04,4.27-6.02,4.27h-11.5V12.69h11.3Zm-7.06,15.86h6.65c1.78,0,2.47-.57,2.47-2.15s-.69-2.15-2.47-2.15h-4.65v-3.67h4.5c1.72,0,2.38-.46,2.38-1.92s-.66-1.92-2.38-1.92h-6.51v11.82Z"/>
      <path class="cls-2" d="m183.39,12.69v13.42c0,1.75.57,2.29,2.32,2.29h6.45v4.19h-6.77c-4.5,0-6.25-1.75-6.25-6.25v-13.65h4.25Z"/>
      <g>
        <polygon class="cls-1" points="175.05 17.78 175.05 12.69 171.44 12.69 175.05 17.78"/>
        <polygon class="cls-2" points="170.8 13.37 170.8 32.59 175.05 32.59 175.05 19.36 170.8 13.37"/>
      </g>
    </g>
  </g>
</svg>